<mxfile host="Electron" agent="Mozilla/5.0 (X11; Linux x86_64) AppleWebKit/537.36 (KHTML, like Gecko) draw.io/24.7.17 Chrome/128.0.6613.36 Electron/32.0.1 Safari/537.36" version="24.7.17">
  <diagram name="Page-1" id="AT2gkgcHDRgqcAM0oEKS">
    <mxGraphModel dx="1434" dy="926" grid="1" gridSize="10" guides="1" tooltips="1" connect="1" arrows="1" fold="1" page="1" pageScale="1" pageWidth="827" pageHeight="1169" math="0" shadow="0">
      <root>
        <mxCell id="0" />
        <mxCell id="1" parent="0" />
        <mxCell id="wn99rqFkEwfpI1SZvY4F-1" value="" style="ellipse;whiteSpace=wrap;html=1;fillColor=#000000;" vertex="1" parent="1">
          <mxGeometry x="150" y="310" width="20" height="20" as="geometry" />
        </mxCell>
        <mxCell id="wn99rqFkEwfpI1SZvY4F-4" value="" style="ellipse;whiteSpace=wrap;html=1;fillColor=#000000;" vertex="1" parent="1">
          <mxGeometry x="590" y="150" width="20" height="20" as="geometry" />
        </mxCell>
        <mxCell id="wn99rqFkEwfpI1SZvY4F-8" value="" style="ellipse;whiteSpace=wrap;html=1;fillColor=#000000;" vertex="1" parent="1">
          <mxGeometry x="430" y="310" width="20" height="20" as="geometry" />
        </mxCell>
        <mxCell id="wn99rqFkEwfpI1SZvY4F-12" value="" style="endArrow=none;dashed=1;html=1;rounded=0;" edge="1" parent="1" source="wn99rqFkEwfpI1SZvY4F-1" target="wn99rqFkEwfpI1SZvY4F-15">
          <mxGeometry width="50" height="50" relative="1" as="geometry">
            <mxPoint x="100" y="260" as="sourcePoint" />
            <mxPoint x="180" y="150" as="targetPoint" />
          </mxGeometry>
        </mxCell>
        <mxCell id="wn99rqFkEwfpI1SZvY4F-13" value="" style="endArrow=none;dashed=1;html=1;rounded=0;entryX=0;entryY=0.5;entryDx=0;entryDy=0;exitX=1;exitY=0.5;exitDx=0;exitDy=0;" edge="1" parent="1" source="wn99rqFkEwfpI1SZvY4F-1" target="wn99rqFkEwfpI1SZvY4F-8">
          <mxGeometry width="50" height="50" relative="1" as="geometry">
            <mxPoint x="177" y="323" as="sourcePoint" />
            <mxPoint x="243" y="217" as="targetPoint" />
          </mxGeometry>
        </mxCell>
        <mxCell id="wn99rqFkEwfpI1SZvY4F-14" value="" style="endArrow=none;dashed=1;html=1;rounded=0;exitX=0.5;exitY=0.5;exitDx=0;exitDy=0;exitPerimeter=0;" edge="1" parent="1" source="wn99rqFkEwfpI1SZvY4F-8" target="wn99rqFkEwfpI1SZvY4F-4">
          <mxGeometry width="50" height="50" relative="1" as="geometry">
            <mxPoint x="330" y="310" as="sourcePoint" />
            <mxPoint x="610" y="210" as="targetPoint" />
          </mxGeometry>
        </mxCell>
        <mxCell id="wn99rqFkEwfpI1SZvY4F-15" value="" style="ellipse;whiteSpace=wrap;html=1;fillColor=#000000;" vertex="1" parent="1">
          <mxGeometry x="230" y="190" width="20" height="20" as="geometry" />
        </mxCell>
        <mxCell id="wn99rqFkEwfpI1SZvY4F-18" value="" style="endArrow=none;dashed=1;html=1;rounded=0;entryX=0;entryY=0.5;entryDx=0;entryDy=0;" edge="1" parent="1" source="wn99rqFkEwfpI1SZvY4F-15" target="wn99rqFkEwfpI1SZvY4F-4">
          <mxGeometry width="50" height="50" relative="1" as="geometry">
            <mxPoint x="270" y="130" as="sourcePoint" />
            <mxPoint x="430" y="200" as="targetPoint" />
          </mxGeometry>
        </mxCell>
        <mxCell id="wn99rqFkEwfpI1SZvY4F-20" value="" style="endArrow=none;html=1;rounded=0;" edge="1" parent="1" source="wn99rqFkEwfpI1SZvY4F-1" target="wn99rqFkEwfpI1SZvY4F-4">
          <mxGeometry width="50" height="50" relative="1" as="geometry">
            <mxPoint x="390" y="500" as="sourcePoint" />
            <mxPoint x="440" y="450" as="targetPoint" />
          </mxGeometry>
        </mxCell>
      </root>
    </mxGraphModel>
  </diagram>
</mxfile>
